<?xml version="1.0" standalone="no"?>
<!DOCTYPE svg PUBLIC "-//W3C//DTD SVG 20010904//EN"
 "http://www.w3.org/TR/2001/REC-SVG-20010904/DTD/svg10.dtd">
<svg version="1.0" xmlns="http://www.w3.org/2000/svg"
 width="618.000000pt" height="618.000000pt" viewBox="0 0 618.000000 618.000000"
 preserveAspectRatio="xMidYMid meet">
<metadata>
Created by potrace 1.14, written by Peter Selinger 2001-2017
</metadata>
<g transform="translate(0.000000,618.000000) scale(0.100000,-0.100000)"
fill="#000000" stroke="none">
<path d="M4738 5130 c-15 -4 -40 -17 -55 -28 -56 -40 -833 -828 -861 -872 -64
-102 -88 -252 -61 -370 31 -133 135 -263 262 -324 197 -95 402 -59 563 99 192
189 352 530 408 870 3 17 8 46 11 65 4 19 8 53 10 75 3 22 7 51 10 65 3 14 6
77 7 140 2 102 0 120 -21 162 -48 100 -165 151 -273 118z"/>
<path d="M2905 4387 c-35 -8 -104 -73 -547 -515 -291 -290 -515 -521 -525
-542 -20 -41 -20 -108 0 -146 14 -28 1596 -1616 1653 -1660 40 -31 116 -41
163 -21 43 18 1026 998 1052 1049 10 21 19 50 19 65 0 84 19 63 -842 923 -451
452 -832 827 -847 834 -37 20 -80 24 -126 13z"/>
<path d="M2170 2463 c-55 -9 -148 -46 -195 -78 -27 -18 -231 -215 -453 -437
-428 -427 -444 -446 -447 -538 -3 -98 71 -197 165 -220 53 -13 198 -8 335 11
39 5 88 12 110 15 106 14 340 82 465 134 88 36 250 124 279 151 11 11 23 19
26 19 7 0 47 34 112 94 166 153 209 383 110 586 -57 115 -180 215 -307 250
-46 13 -156 20 -200 13z"/>
</g>
</svg>
